<svg id="Layer_1" data-name="Layer 1" xmlns="http://www.w3.org/2000/svg" width="500" height="500" viewBox="0 0 500 500">
  <defs>
    <style>
      .cls-1 {
        fill: #fff;
      }

      .cls-2 {
        fill: #f7931e;
      }
    </style>
  </defs>
  <g>
    <path class="cls-1" d="M480.57,238.27c-.43-.73-1.39-.32-1.26,1.72l1.62,1.46Z"/>
    <path class="cls-1" d="M477.05,251.84c.62,2.41,1.82,5.29,3.45,3.85-1.4-2.49-.7-3-2.4-5.67-.11-2,.63-3.52,1.24-3.15-.41-.74.44-3.16-.57-4.28a10.75,10.75,0,0,0-1.12,4.39,14.81,14.81,0,0,0,.09,2.47,20.66,20.66,0,0,0,.4,2.61C477.72,252.78,477.34,252,477.05,251.84Z"/>
    <path class="cls-1" d="M382.91,416.59,384,416A5.2,5.2,0,0,0,382.91,416.59Z"/>
    <path class="cls-1" d="M270.49,455.73c.91-.11,1.28-.3,1.31-.46C271,455.45,270.27,455.6,270.49,455.73Z"/>
    <path class="cls-1" d="M250,454.28l1.2.14A1.9,1.9,0,0,0,250,454.28Z"/>
    <path class="cls-1" d="M382.91,416.59,380,418C380.1,418.61,381.55,417.4,382.91,416.59Z"/>
    <path class="cls-1" d="M477.66,279.56a7.7,7.7,0,0,0-.11-1.85c0,.57-.07,1.13-.13,1.7A1.05,1.05,0,0,1,477.66,279.56Z"/>
    <path class="cls-1" d="M421.12,379.87l.63-.74a4.51,4.51,0,0,0,0-1Z"/>
    <path class="cls-1" d="M444.35,346.64c-.51.76.54,1.75.89,2.37a3.2,3.2,0,0,1,.18-2.23A1.6,1.6,0,0,0,444.35,346.64Z"/>
    <path class="cls-1" d="M470.19,287.53l.07-1.17C470.25,286.67,470.19,287.17,470.19,287.53Z"/>
    <path class="cls-1" d="M400.58,400.41a1,1,0,0,0-.62-.14A.76.76,0,0,0,400.58,400.41Z"/>
    <path class="cls-1" d="M478.51,189.34c-.1,0-.15,0-.24.06C478.47,189.61,478.58,189.66,478.51,189.34Z"/>
    <path class="cls-1" d="M476.88,238.27l-.09-.66a3.21,3.21,0,0,0-.79-.14Z"/>
    <path class="cls-1" d="M213.34,448.37l.16.06C214.49,448.44,213.94,448.37,213.34,448.37Z"/>
    <path class="cls-1" d="M45.51,192.68c-2.1,3.53-.15-6.51-2.83-1.09C43.33,191.19,43.62,197.22,45.51,192.68Z"/>
    <path class="cls-1" d="M477.28,280.6c-.08.56-.17,1.13-.28,1.7A8.71,8.71,0,0,0,477.28,280.6Z"/>
    <path class="cls-1" d="M42.68,191.59h0l-.27.57Z"/>
    <path class="cls-1" d="M134.9,416.15a2.59,2.59,0,0,0,.37,1C135.33,417,135.26,416.77,134.9,416.15Z"/>
    <path class="cls-1" d="M191.46,445.72,190,445A9.64,9.64,0,0,0,191.46,445.72Z"/>
    <path class="cls-1" d="M107.77,396.91a6,6,0,0,0-1.62-1.69,1.72,1.72,0,0,0,.14.37A3,3,0,0,1,107.77,396.91Z"/>
    <path class="cls-1" d="M84.37,371.26a6.75,6.75,0,0,0,.17.68l.74.82Z"/>
    <path class="cls-1" d="M429.3,91.49a5.14,5.14,0,0,1,.13,2.08C429.83,92.5,433.6,96.31,429.3,91.49Z"/>
    <path class="cls-1" d="M476.88,279.44a1.27,1.27,0,0,1,.4,1.16c.06-.41.1-.81.14-1.19C477.23,279.26,477,279.21,476.88,279.44Z"/>
    <path class="cls-1" d="M99.12,404l-4.05-4.16C96.14,401.05,97.62,402.56,99.12,404Z"/>
    <path class="cls-1" d="M193.31,20.19l1.23-.52A2.73,2.73,0,0,0,193.31,20.19Z"/>
    <path class="cls-1" d="M83.23,387.35a12.19,12.19,0,0,0-1.4-3.1,2.24,2.24,0,0,0-.71-.27Z"/>
    <path class="cls-1" d="M429.43,93.59s0,0,0,0S429.42,93.57,429.43,93.59Z"/>
    <path class="cls-1" d="M454,122.83c-2.74-4.84-2.85-1.33-4.34-1.8-4-5.24-.48-3.27-.89-5.67a35,35,0,0,0-4.06-4,17.12,17.12,0,0,1-3.44-3.41c.11-.36-.14-.91.57-.56a16.15,16.15,0,0,1-2.8-2.81c-.47-.57-1-1.19-1.43-1.82l-1.55-1.89c-2.1-2.55-4.25-5.18-6.56-6.52a1.42,1.42,0,0,1-.07-.78,2.81,2.81,0,0,1-1.45,2.2c-1.61-1.82-3.83-2.64-3.51-4.12.94,1.15,1.39.92,2.14,1.2l-2.07-1.58c-.19-2.88,2.74,2.24,3.72,1.41-1.86-1.71-4-3.42-5.95-5.1a28.26,28.26,0,0,1-5-4.73c.67-1.76,6.59,6.08,4.16,1.35l1.81,2.38,1.7,2.46c-1-5.22,2.24,2.86,1.63-2.21-.6-.78-1.15-1.47-1.66-2.08s-1.05-1.09-1.52-1.55c-.95-.93-1.79-1.65-2.63-2.38a69.71,69.71,0,0,1-6-5.8c-1.93-.54-.55,1.41-2.48.87a17.68,17.68,0,0,1-4.51-4.18,11.59,11.59,0,0,1-1.67-3.19c-.71-1.94-1.23-3.61-5.06-5.43-2.37-.49-4.37.72-8.2-3.76l2.73-.29c-2.94-2.43-4.2-2.56-5.46-2.75s-2.43-.54-5.29-3.37c1.58.2,5.22,2.94,4.42,2.09-3.32-4.23-3.6-1.23-6.81-3.51l.27-1.87c-1.74-1-3.56-2-5.42-3.06s-3.75-2.05-5.76-2.94c-4-1.82-8-3.8-12-5.62.67-.22,2.29,0,.66-1.41-1.31-.55-2.62-1.14-3.94-1.75l-2-.95-2-.89c-2.7-1.22-5.4-2.54-8.08-3.89s-5.43-2.51-8.07-3.79l-2-1-2-.86-3.85-1.7-4.41.06c-.92-.33-1.54-1.14-.44-1.14-3.94-1.7-.48.83-2.61.83-2.35-.56-2.84-1.69-1.24-1.69-1.9-.22-4.17-.53-6.62-.92s-5.15-.66-7.8-1.11c-1.32-.22-2.64-.49-3.94-.73s-2.6-.43-3.83-.69a41.52,41.52,0,0,1-6.61-1.85l1.58-.16a10.66,10.66,0,0,0-2-.4,10.82,10.82,0,0,0-1.72,0,19.23,19.23,0,0,0-2.82.57,8.92,8.92,0,0,1-6.13-.25l1.1-.12a153.14,153.14,0,0,0-20.15-1.43l-4.86-.17q-2.39,0-4.65-.09c-1.51-.06-3-.15-4.38-.29s-2.76-.34-4-.49c-.9,1.13-4.19,1.14-7.36,1.25-.79,0-1.57.06-2.3.12a14.68,14.68,0,0,0-2,.36c-1.18.31-2,.78-2.12,1.54-3.84-.25-5.26-.57-7.06-.78a53.93,53.93,0,0,0-9.35.32c-2.88.34-3.84,2.67-7.21,3.74l-.43-1.48-4.3,2.66c-1-.43-2-.78-2.94-1.14l-3.1,1.3c1.3-.28,2.89-.11,2.81.38a28.87,28.87,0,0,1-8.06,1.9c-2.55.32-4.54.36-4.73,0l-5.63,2.6c-1.87.86-3.67,1.88-5.51,2.81,0-.67,1.87-1.63,3.25-2.6-5.56,3.88-1.7-1.07-6.8,2.49.89,0-.06,1-.06,1.35a12.92,12.92,0,0,0-2.88.59c-1.09.36-2.3.82-3.55,1.35s-2.55,1.12-3.81,1.73A35.75,35.75,0,0,0,156,34.19l.4-1.4c-2.08,1-4.18,2.06-6.3,3.19-1.06.57-2.14,1.13-3.2,1.74l-3.16,1.94c-2.11,1.32-4.27,2.62-6.41,4s-4.24,2.85-6.4,4.23c3.37-1.57,3.64.44,1.23,2.2l-1.9-.71c-1.07,1.87,3-1.18.32,2-3.22,2-3.15-.05-1.65-1.77l-3.48,3.16c-.5-.24.24-1.09.12-1.76-1,2-7.6,3.31-8.67,6.51l-.5-.22c-2,1.59-3.76,3-5.31,4.28s-2.83,2.59-4.11,3.78l-3.8,3.58c-1.29,1.22-2.58,2.58-4.09,4,.85,1.13-1.73,3.16-2.71,5.67-2.27,2-4.77,4.11-7.34,6.34a79.37,79.37,0,0,0-7.38,7.66,9.34,9.34,0,0,0-1.19,2.21c-.14.43-.08.6,0,.71s.69.17.3,1.34c-1.22-.51-5.68,5.36-4,1.78-1.31,1.79-2.45,3.21-3.36,4.6s-1.73,2.62-2.57,3.94-1.69,2.71-2.69,4.38-2,3.73-3.25,6.21c1.09-.74,2-1.75,2-.92-.91,1.8-2.93,3.57-3.3,3l.17-.52c-2.45,5.83-6.83,11.59-10.66,17.45A69.27,69.27,0,0,0,48,145.45a42,42,0,0,0-1.83,4.16,22.19,22.19,0,0,0-.89,4l.08-.57-1.25,5.08-.62,2.54-.5,2.56c-1.74,4.44,0-3-1.87.06a53.44,53.44,0,0,1-1.62,7.52c-.55,2.26-1.2,4.31-1.85,6.3l-1,2.95-.46,1.47L35.85,183a41.8,41.8,0,0,0-1,6.46,12.45,12.45,0,0,0-1.76,2.86,27.31,27.31,0,0,0-1.21,3.82c-.35,1.4-.65,2.91-.92,4.48s-.52,3.2-.64,4.87c-.3,3.33-.6,6.74-1,9.9a38.1,38.1,0,0,1-1.48,8.48l.94-.5c.68,2.55-.77,3-1,4.83.7-.24.87-2.68,1.31-1.1.07,2.64.08,5.3.05,8,0,1.34-.08,2.68,0,4l.06,4.05,0,4.07c0,1.36,0,2.72,0,4.09l.26,8.21,0,2.07.15,2.06.29,4.13c.19,2.75.33,5.52.72,8.25l1,8.22c.46,2.71,1,5.41,1.48,8.1.75,3.94,2.27,4.72,3.51,5.81s2.35,2.46,2.7,7.56l-2.36-2.25,1.15,2.81c.41.92.81,1.86,1.2,2.79.78,1.88,1.51,3.77,2.22,5.68s1.5,3.79,2.24,5.69l2.22,5.69c1.6,3.75,3.26,7.46,5,11.08a104.94,104.94,0,0,0,6.08,10.26c-.79-.62-1.26-.4-2-1.77.2,1.78,1.79,4.42,3.32,6.61s3.12,3.85,3.56,3.61c1.22,2.11-.45.94-.07,2.47A16.21,16.21,0,0,0,65.39,363c1.29,1.42,2.41,2.7,2.45,3.74,0,.35-.87-.53-1.28-1,1.72,1.45,5.73,8.33,5.65,5.83a36.14,36.14,0,0,0,5,6.73c.87,1,1.72,2,2.49,3,.38.5.75,1,1.09,1.5a17.62,17.62,0,0,1,1,1.49c3.19,1.28,6,8.15,8.36,7.3-2,1.2,5.72,8.8,9.25,10.46-1.37-.37,1.85,2.74.15,2.42,3,3,6.35,5.14,6.54,3.8,2.06,3.56,5.36,5.79,8.43,7.54a27.54,27.54,0,0,1,4,2.72,8.47,8.47,0,0,1,1.44,1.57,5.49,5.49,0,0,1,.9,1.81l8.06,4.7,7.93,4.25,1.94,1,2,1,3.89,1.92,3.82,1.92,3.87,1.74c-.35.45-1.23.34-2.36-.06a19.6,19.6,0,0,1-1.84-.76c-.65-.31-1.31-.69-2-1-2.65-1.43-5.2-2.81-5.6-1.67,2.46,1.15,4.69,2.09,6.79,2.95s4.18,1.46,6.17,2.19c1,.36,2,.73,3,1.12l1.5.61,1.55.59a70,70,0,0,1,6.6,3c2.38,1.41-1.81.26-2.82.22,1.27.45,2.52.92,3.74,1.41s2.47.89,3.68,1.36c2.43.91,4.8,1.86,7.14,2.79s4.72,1.61,7.06,2.32c1.17.35,2.34.68,3.51,1s2.37.47,3.55.65c-.08.19-1.13.13-2.12,0,1.83.44,4.11,1.51,4.19.47l-1.84-.23c-2.42-2.24,8-1,8.46-1.67-3.8,2.14,8.88,2.81,3.14,5.3,1.25.09,2.86,0,2.73-.77,1.74.6,2.23,1.13.25,1.47a24.29,24.29,0,0,0,3.62.32,14.8,14.8,0,0,0,1.91-.2,12.82,12.82,0,0,1,5,.29c-.1.48-1.34.46-2.06.92a31.29,31.29,0,0,1,11.38.24c-.34.26.2.72-1.32.52a59,59,0,0,0,6.21.33h1.47l1.46-.09,2.9-.17c1.93-.11,3.88-.18,5.94-.13a63.82,63.82,0,0,1,6.63.39c-2.9,2.08,3.25.79,3.74,2.67.87-.08,1.74-.13,2.61-.23l2.6-.34-2.09-.86a46,46,0,0,0,6.44-.74,26.84,26.84,0,0,1,6-.37l-1.66.51-1.67.42c1.42-.06,2.83-.24,4.24-.41l4.22-.5-4.84-.34c4.49-1.31-.63-2.32,5.36-2.26-1.19.27,4.47-.25,6.91.45h0a17.88,17.88,0,0,1,7.67-1.74c.95.48-.38,2.13.24,2.45,1-.91,3.56-1.52,6.22-2.1s5.38-1.18,6.56-2.36c-.83.59-.68,1.56-.34,1.69l1.54-1.66c2.12-.07,2.47,0,2.31.89,6.19-1.19-2.49-1.86,5-2.54-.54.23-.22.35-1.37.81,7.43-1.3,13.74-4.58,20.42-6.27,2.55,1.12-5.57,2.37-2.85,3.12,2.33-.9,4.71-1.83,7-2.94l6.89-3.48c2.32-1.1,4.52-2.42,6.76-3.55,1.11-.57,2.23-1.12,3.35-1.63l1.67-.75,1.64-.77-1.68.62c0-1.49,1.73-2,3.94-2.57s4.94-1.14,6.75-2.89c-.93.77-.66,2.05-.52,1.64a68.26,68.26,0,0,0,9-5.45c1.55-1.12,3.11-2.4,4.82-3.73l2.63-2.08,1.4-1.09,1.41-1.18-.63,1.27a54.28,54.28,0,0,0,6-3.75c1.07-.74,2.17-1.46,3.17-2.2s2-1.45,2.83-2c.57-1.31,2.52-2.7.76-2.58a28.12,28.12,0,0,0,4.4-2.17,38.13,38.13,0,0,0,3.77-2.82,50.65,50.65,0,0,0,6.43-6.51c1-1.13,2-2.26,2.93-3.38l3-3.24a29.66,29.66,0,0,1,6.7-5.58c-.94,1-1.83,2.77-1.07,2l1.58-1.88c.52-.63,1-1.3,1.5-1.94l3-3.91c-1.39-.17-1.38.51-3.39,1.47a15.51,15.51,0,0,1,3.24-5.6c-1.13,1.88-.77,2.18.09,1.87a17.28,17.28,0,0,0,3.05-1.78c-.47,0-.37-.73-.75-.83,4.75-2.71-1.29-2.12,4.07-6.69l.25.66c.34-.56.65-1.12.94-1.69l.82-1.75A17.4,17.4,0,0,1,437,366c1.76-.17-1.08,2.61-.3,3.4,2.22-3.29,2.47-7.71,5.42-10-.58,1.6-1.86,3.63-2.55,5.18A12.58,12.58,0,0,0,442.8,362c.63-.74,1.05-1.47,1.93-2.62l-.18.22c1.39-1.75,2.84-3.49,4.19-5.28-.39.42-.82.83-1.25,1.23-.17-3,.87-5.28,2.23-7.63.67-1.18,1.42-2.38,2-3.72a18.16,18.16,0,0,0,1.31-4.61c-1,6.72.62,1.53,1.75,2.66,1.14-1.32,2.75-3.42,2.79-2.57a8.77,8.77,0,0,1,1.81-4,10.09,10.09,0,0,0,1.64-5.15c.53,0,1.44-3.06,2.27-1.92,1.35-3.92-1.18.55-1.6,0,.61-3.18,2.34-6.46,4.25-10.09q.72-1.35,1.41-2.79c.42-1,.8-2,1.15-3a27,27,0,0,0,1.42-6.59,42.79,42.79,0,0,0,.69-8.62c0-1.16,0-2.29.07-3.58s.09-2.77.3-4.56c1.3-2.18,1.28,2.36,1.28,2.36a28.48,28.48,0,0,0,1.69-5.14,25.18,25.18,0,0,0,.63-5.2c.28.82.77.13,1.51-.89.4-3-1.4-2.28,0-6a9.86,9.86,0,0,1,1.41,3.27c.09-1.79.06-3.57,0-5.36s-.22-3.62-.21-5.45c1-.85,1,2.35,1.39,3.71.13-4.14.63-10.67-.73-12.05l-.68,2.56c0-1.49,1.23-.65,1.35.47.61,3.61-1.1,5-1.61,5.1l0-2.6c-1.59,1.15-1.8,3.71-1.72,6.65.08,1.48.06,3,.05,4.54a23.32,23.32,0,0,1-.38,4.25L473.4,277l.76,5.54c-.36.51-.89.88-1.28.82s-.64-.57-.58-1.86a6.74,6.74,0,0,0-.87,3.31,4.43,4.43,0,0,1-.92,2.89c-.25.3-.31.12-.32-.21l-.21,3.65c-.26-.79-1.56.23-.77-1.85a22.17,22.17,0,0,0-1.29,4.19,31.4,31.4,0,0,0-.56,3.5c-.24,2.11-.39,3.73-1.48,4.67l0-.55a31.76,31.76,0,0,0-.64,4c0,.64.21.75.46.79.52.11,1.25,0,1,3.47q-2.5,1.56-5,3.05l1.15,1.35c-.38.85-1.17,2.51-1.61,2-.28,3.57.84-.31,1,1.9-1.48,1.82-2.4,4.76-3.41,7.2s-2.06,4.4-3.38,4.35c.4,1.94,2.57-3.52,1.35,1.16-1.47.07-1.93,1.36-2.38,3.05a12.27,12.27,0,0,1-2.49,5.23c-.63-1.73,1.75-4.81-1.17-1.75.46,1.6-.55,3.31-1.82,5s-2.94,3.28-3.58,4.87c.74.52,0,2.22-1.26,4.46s-3.18,4.86-4.45,7.45c-.24-.58-6.86,8.41-10.67,12.16l-.15-.31c.42,1-.3,2.47-1.39,4.17-.54.84-1.18,1.74-1.82,2.63s-1.35,1.73-1.92,2.56c-.74-.84-.58-1.64.42-3.61-.78,1-1.62,1.89-2.43,2.84-.13,1.05-.66,2.14-2.09,4.12l-.42-1.62c-.8.95-1.52,2-2.26,3l-2.37,3.14c-.83,1.07-1.71,2.15-2.7,3.21-.5.54-1,1.06-1.58,1.58s-1.2,1-1.86,1.45c.61,1.19,6.25-1,1.85,4.35-.67-.32-1.67-1-.57-2.45a8.31,8.31,0,0,1-2.18,2.47l1.17-2.73c-2.48,1.66-.44,1.76-2.22,3.31-.64-.75-1.74.69-2-.12.37-.48,1.76-1.11,2.14-2a30.77,30.77,0,0,1-3.28,2.39,7.66,7.66,0,0,1-2.77,1.17c.54.26.88,1-.5,2.35-3.73,3.33-2.07.22-4.58,1.73-.44,1.35-3.39,2.75-2.53,3.95a3,3,0,0,1-2.49.56,45.34,45.34,0,0,1-4.91,4.47c-1.79,1.48-3,2.66-1.33,2.45l.61-.3a4.24,4.24,0,0,0-.31.3v0a39.41,39.41,0,0,1-5,4.16c-1.81,1.25-3.77,2.29-5.7,3.36-3.84,2.2-7.9,3.95-11.39,6.33l-.23-.44a69.06,69.06,0,0,1-6.76,4.17,45.3,45.3,0,0,0-5.77,3.84c-1.36.62-3.58.63-3.25-.17-1.67,1-2.55,1.62-3.68,2.22a19.7,19.7,0,0,1-5.29,1.75c3.27-2.21-1.52-.22,3.44-2-4.81,1.42-6.09,1.13-10.61,4.28,1.28-1.76-4.07-.3-6.17.81l3.58-.26a59.1,59.1,0,0,1-7,2.32l.71-2c-1.27.19-2.5.35-3.66.64a29.37,29.37,0,0,0-3.37,1c-2.16.78-4.16,1.83-6.16,2.59a38.1,38.1,0,0,1-5.89,2,14.07,14.07,0,0,1-2.95.41,12.81,12.81,0,0,1-3-.36c-2.42,1.61,5.57-.16,3.48,1.59-4.68.6-9.84-.88-11.26-.66a9.84,9.84,0,0,0-6,1.57,12.89,12.89,0,0,1-2.41,1.17,10.23,10.23,0,0,1-1.66.43,13.59,13.59,0,0,1-2.21.11c.91.53,1.89,2-3.12,3-4.75.14-5.92-2-3-2.74,1.11-.14,1.67,0,1.63.21,1.5-.33,3.44-.73,1.55-1.23l-.55.64a43.84,43.84,0,0,0-5.07-.24c-1.71-.08-2.94-.32-2.21-.81-3.48.65-1.47,1,1.16,1.25a46.65,46.65,0,0,0-7.69-.21c-1.17,0-2.36.13-3.63.08s-2.63-.14-4.16-.33c1,.36,1.86,1.07.88,1-4.51-.48-5.51-.22-6.16.17a4.9,4.9,0,0,1-1.1.61,9.62,9.62,0,0,1-2.93.21c-3.42-1.17,1.4-2.06-4.81-1.78-3.7-.89-.65-1.62.87-2a19,19,0,0,1-4,.05,26.47,26.47,0,0,1-3.6-.8c-2.24-.64-4.15-1.42-5.71-1.72l3-.11a22.92,22.92,0,0,1-4.62-.33c.49.5,1,.94,1.48,1.41-1.69-.39-3.1-.74-3-1.19-1.87.45,1,2.19-2.63,2.61a19.47,19.47,0,0,0-4.42-.89,11.16,11.16,0,0,1-2.07-.47,1.65,1.65,0,0,1-1-1c3.5,1,3.39.51,3.15,0s-.59-1.21,2.43-.8a15.29,15.29,0,0,1-4.26-.79c-.22-.23.3-.26.78-.28-6.41-2.87-3.45,1.05-10.45-.59.55-.33.25-.83-.34-1.26a4.75,4.75,0,0,0-2-.92c2.76.8,1,1.81-1.78,1.74-4.26-1.93-5-.88-7.29-1.62l2.57,1.07a4.3,4.3,0,0,1-2.52.06c-1.09-.2-2.42-.64-4-1,0-.75,2.93.49,1.93-.17-1.94.16-3.75-.88-5.68-2-1-.59-2-1.15-3-1.71a11.42,11.42,0,0,0-3.44-1.21c-1.93-1.41.4-1.64-1.33-2.75a10.72,10.72,0,0,1-5.35-2.27,13.82,13.82,0,0,0-5.4-2.67c1,1.77,1.44,1.63-2.83,1l9.14,3.21-6.36-1a36.35,36.35,0,0,0,4.15,1.5,25.7,25.7,0,0,1,3.32,1.21,13.2,13.2,0,0,0-2.42-.12c-.17.11.15.45.6,1.19-1.49-1.65-3.4-2.23-5.43-2.78s-4.2-1-6-2.67l1.43-2.58a21.1,21.1,0,0,0-4.27-2.56c-1.45-.7-3-1.16-4.55-1.83s-3.17-1.28-4.87-2.1a27.11,27.11,0,0,1-5.27-3.16c.73.65,1.43,1.36,2.19,2-1.67.41-4.79-2.85-7.52-4,.77-.68-.57-1.95-1.26-3.14-.29.69-5.3-3.86-7.13-2.74-.83-1.14-1.7-2.22-2.48-3.42-5.34-4.9-8.35-2.84-13.44-7.78,2.3.58.36-2,4.39.45-1.75-1.54-3.21-3-3.7-2.55-.3-.69-1.76-1.47-3.23-2.42s-2.93-2-3.39-3.12c-1-.37-2,.15-3.82-1.73-.07-.34.35-.34.35-.34-.17.16-1-.41-1.74-.78s-1.22-.48-.81.75a20.24,20.24,0,0,0-3.44-5.5c-.74-.9-1.56-1.8-2.4-2.69L92,382.54c-1.66-1.84-3.32-3.63-4.68-5.39a17.79,17.79,0,0,1-2.74-5.21l-2.66-3c-.89-1-1.73-2.16-2.59-3.24-1.69-2.18-3.4-4.3-4.7-6.22.41.08.42-.26.81.53-2.67-5.9-4.54-1.76-7.58-8.54-.25-2,.42-1.3,1.07-.35s1.37,2.05,1,.92c1.08-1.25-.07-3.11-1.66-5.28s-3.61-4.68-3.83-7.34l.71,1c-.68-3.83-5.36-7.48-7.57-13.24,0,0,.38.16.46-.16a23.3,23.3,0,0,1-2.51-3,37.62,37.62,0,0,1-2.41-4,92.46,92.46,0,0,1-4.27-8.77c1.79,1.33,1.5,2.33,2.36.83-1-2.45-1.7,1.44-3.75-3.48.12-1.88-.59-5.67.66-6.57.46,1.59,1.08,3.13,1.61,4.69.45-1.48-.11-3-.77-4.46A21.23,21.23,0,0,1,47.26,298l.84.11c-2.36-7.19-4.13-6.87-5.87-14.91l-.39.95c-1.49-2-1.32-3-1.17-4a5.3,5.3,0,0,0-.72-4.07l1.71-1.67-1-2.82c-.36-1.15-.76-2.47-1.17-3.88s-.83-2.88-1.22-4.34a33.14,33.14,0,0,1-.9-4.23,39.67,39.67,0,0,1,2.46,6c.79,2.32,1.47,4.76,2.18,6.57-.39-2.88-1.4-9.79-2.57-11.21.34,1.16,1,2.57.85,3.76-2.1-3.36-3.1-8.07-3.54-13.94,1.89.41,2-3.41,2.05-7.86s.24-9.57,1.73-11.62c-.14-1.28-.24-2.56-.27-3.85s.07-2.56.16-3.84c.2-2.57.45-5.15.88-7.76s1-5.26,1.5-8l.36-2.06.43-2.09c.29-1.41.55-2.84.78-4.31-3.67,3.64.53-3.44-2.6-3.31a20.3,20.3,0,0,1,.49-3,2.41,2.41,0,0,1,.42-1c1.25-2.63,2.45-5.25,3.7-7.83.71-.85.68-.17.6.71s-.19,2,.17,1.95a11,11,0,0,1,1-2.85,1.87,1.87,0,0,1,.79-.85c.48-.26,1-.26,1.9-2.06-1.27.49-.93-2.45.41-5.64l-2.68,4.27a15.91,15.91,0,0,1,1-4.76,11.47,11.47,0,0,1,1.7-2.67c1.21-1.55,2.4-3.07,3-7.37l0,2.87c.36-2.18,1.89-5.9,3.14-9.72.31-.95.61-1.91.88-2.86s.6-1.83.82-2.7a14,14,0,0,0,.6-4.55c.64-.57,1.82-1.14,1.22.71.6-1.17,1.1-2.41,1.68-3.65s1.15-2.51,1.7-3.8c1.1-2.58,2.07-5.28,3.29-7.78s2.31-5,3.54-7.2a33.82,33.82,0,0,1,4.08-5.59l.2,1.07c.89-1.74.61-3.68,2.69-5.23.18.27.16,1.06.72.35.38-1,1.94-5,3.8-6.86l-.61,2.31a66.21,66.21,0,0,0,4.22-5.45,52.65,52.65,0,0,0,3-5.1,73.73,73.73,0,0,1,6.21-9.94c.8.75,2.73-.22,4.82-1.69s4.33-3.48,5.94-4.69l.12.32c2.19-2,4.09-4,5.89-5.85s3.57-3.67,5.24-5.51,3.4-3.6,5.18-5.41a72.44,72.44,0,0,1,5.78-5.44,28.56,28.56,0,0,0,6.15-2.91c2.31-1.34,4.95-2.83,7.62-4.5l2-1.26c.69-.41,1.4-.78,2.11-1.18l4.23-2.31a56.09,56.09,0,0,1,8.2-3.71c-1.68.4-.55-1.65,1.11-2.75,2.45-.85,5.84-4.42,6.3-2.45l-.86.35c2.62,1,7.14-1.75,11-3.12l-.34-2.7a39.92,39.92,0,0,0,9.06-1.83c1.56-.47,3.13-1,4.69-1.62l2.32-.89,2.33-.81a86.23,86.23,0,0,1,8.57-2.76c2.6-.54,4.83-.73,6.45-.22a22.51,22.51,0,0,1,4-1.55,33,33,0,0,0,4-1.39l.11,1.42,4.84-.63c1.48-.21,2.89-.28,4.33-.46s3-.35,4.64-.59l2.69-.4,3.09-.34-1.71,1.15A9.07,9.07,0,0,0,241,23.2a18,18,0,0,1,2.3-1.63,6.24,6.24,0,0,1,3-.85l1.5,2.07c2.2-.06,4.42,0,6.63.08l1.66.06,1.66.16,3.31.28c2.2.18,4.4.25,6.59.26a38.47,38.47,0,0,0,6.6-.32c-.16.3-.47.89-1.9.87,4.17.17,15.69,3.17,14.62.08,0,.47.5.79,1.41,1a25.52,25.52,0,0,0,3.61.5c2.85.23,6.38.14,8.8.26l-1,1.19c4.29-.83,4.54-1.27,10.19-.48,1.26.49.86,1.35-.78.6a12.21,12.21,0,0,0,2.41.74,8.13,8.13,0,0,0,1.62,0,9.14,9.14,0,0,1,4.71,1l-2.19.3c4.38,1.38,4.19.74,6.91.58,2.92.42,8.21,3.13,8.39,4.56.83-.49,3.55-.52,6,.82.16.57-.87.48-1.38.44a28.92,28.92,0,0,0,4.69,2c1.43.51,2.73.92,4,1.28,2.47.74,4.69,1.37,6.78,3.13a1.21,1.21,0,0,0,.43,1.16c-1.34-.74-2.67-1.31-3.85-1.87l-3.13-1.46A16,16,0,0,1,342,38.84c-.5,1.19,3.85,3.4-.4,3.42,2,.36,4.7.76,7.47,1.38a24.89,24.89,0,0,1,7.45,3.06,2.13,2.13,0,0,1,.36.68l-.51-.09a9.3,9.3,0,0,0,2.78,1.2,28.28,28.28,0,0,0,3.24,2.3c0,.61,1.12,1.43,2.53,2.26S368,54.7,369,55.41c.56-1.31,3.15.62,1.23-2,.27.3-.47-.12-1.89-.93a7.4,7.4,0,0,0-1-.39l.21,0-5.34-3A10,10,0,0,1,368.25,52a32,32,0,0,1,4.11-.1,34,34,0,0,0,4,5.44,23.83,23.83,0,0,1,1.84,2.38,3.88,3.88,0,0,1,.78,1.65c1.63.91,3.36,2,5.12,3.08.89.54,1.76,1.13,2.61,1.72l2.57,1.73a53.72,53.72,0,0,0,5,2.92,16,16,0,0,0,4.33,1.78c1.84,1.15,1.36,2.18,1.69,3-1.11-.6-2.19-1.59-2.94-1.74.92.57,2,1.36,3.1,2.21l1.7,1.31,1.63,1.36c2.14,1.75,4.09,3.12,5.11,2.81,1.67,2.17.81,1.94.25,1.8-.28-.08-.49-.13-.29.14s.86.83,2.17,2.14L410,85.3A36.61,36.61,0,0,0,416.48,93c2.23,2.21,4.62,4.11,7,6.08a61.29,61.29,0,0,1,6.86,6.75,27.25,27.25,0,0,1,3,4.3,41.23,41.23,0,0,1,2.58,5.24c-.45-1-.69-1.56-.57-1.93.6,1,1.19,2,1.79,3s1.16,2,1.76,3c1.19,2,2.46,4,3.72,6s2.4,4.07,3.64,6.09c.61,1,1.25,2,1.84,3l1.72,3.12c1.13,2.09,2.29,4.16,3.36,6.27s2,4.29,2.9,6.45c.45,1.08.93,2.15,1.32,3.25s.75,2.21,1.09,3.32c.69,2.21,1.32,4.43,1.83,6.66,1.15,5.07,2.44,5.2,4.31,7.93l-1.08,1.52c1.1,1.54,2.11,3.12,3.17,4.7a17.73,17.73,0,0,1,1.5,5.27c.19,1.77.14,3.57.17,5.39a34.08,34.08,0,0,0,.43,5.68,22.81,22.81,0,0,0,1.8,6.36l.78-1.41c.19,1.74.89,4.43,1.23,6.66s.44,4-.18,3.77a2.46,2.46,0,0,1,.84,2.43l-.77.2c.39,1.38.83,2.77,1.19,4.17l1,4.23c0,3.35-.83,3.14-1.55,3.31-.36.08-.7.26-.92,1a20.85,20.85,0,0,0-.27,4.48c.39,3.53,2.56,10.15,3.06,8.82,0-1.46.39-3.73,1.18-3.86l.5,3.32c2.34.57,4.79,3.26,6.21-5.17l-1.58-5.78,1-1.94c.18,1.64.23,3.28.29,4.92A6.2,6.2,0,0,0,483,226a22.71,22.71,0,0,0-1.12-2.91,3.87,3.87,0,0,0,1.05-2.53l-2.66-5.52c.83-.79,2.08,2.38,2.14-1.51-1.36-2.55-1.71,2.77-2.94-1.55.7-2.88,1.66-2.2.35-5.33.54-.54,1,.1,1.43,1.36a45,45,0,0,1-1.26-5c-.45-1.71-.93-3.23-1.67-3.86.39-1.55-.13-4-.47-6s-.66-3.67.46-3.77a26.26,26.26,0,0,1-3.53-7.21c1.81,2.06,1.36-.41.56-3.28s-1.6-6.19-.07-6a10.75,10.75,0,0,1-2.19-3.2,44.59,44.59,0,0,1-2-4.67c-.66-1.69-1.27-3.5-2-5.2a35.34,35.34,0,0,0-2.48-4.68,2.69,2.69,0,0,1,1,1.35c-1.14-3.44-.87-4.69-1.32-7-2,.33-4.72-4.62-7-6.84-.12-4.84,3.18,1.46,4.26-.56-.68.44-1.82-1.17-2.9-2.61s-2.16-2.7-2.41-1.73c-.5-3.54-.82-2.85-.18-5.16-2.45.62-1.76-2.66-4.53-4.35-1.39-4.84,1.37-2.23-2-6.55C450.84,119.08,454,122.83,454,122.83ZM359.31,38.45l0,0,2.37,1.13Zm-9.62-4.68c1.16.6,2.65,1.25,4.2,2,.11.62-.44.85-1.42.4C353.15,36.09,351,34.8,349.69,33.77Zm15.13,18.85c-1.51-.63-1.84-1.14-1.89-1.5.68.36,1.48.76,2.55,1.26.06,0,.18,0,.25-.05A1.82,1.82,0,0,1,364.82,52.62Z"/>
    <path class="cls-1" d="M368.3,52.49a3.15,3.15,0,0,1,.62.27,5.07,5.07,0,0,0-.67-.77l-.73.09Z"/>
    <path class="cls-1" d="M384.24,415.92l-.2.1a1.43,1.43,0,0,1,.5-.1A1.48,1.48,0,0,1,384.24,415.92Z"/>
    <polygon class="cls-1" points="204.79 16.51 204.88 16.85 205.74 16.34 204.79 16.51"/>
    <path class="cls-1" d="M429.62,379.72a1.47,1.47,0,0,0,.76-.38A2,2,0,0,0,429.62,379.72Z"/>
    <path class="cls-1" d="M444.73,359.38l2.36-2.75C446,357.79,445.29,358.66,444.73,359.38Z"/>
    <path class="cls-1" d="M455.18,342.87a1.51,1.51,0,0,0-.35-.62l0,0Z"/>
    <path class="cls-1" d="M190,455.07c-.26-.06-.51-.12-.75-.15C187.43,454.67,188.62,454.93,190,455.07Z"/>
    <path class="cls-1" d="M281.83,460.07a27.11,27.11,0,0,1-2.87,1C280.6,461,281.87,460.87,281.83,460.07Z"/>
    <path class="cls-1" d="M99.56,404.44s0,0,0,0l-.47-.44Z"/>
    <path class="cls-1" d="M274.69,461.41a12.8,12.8,0,0,0,4.27-.31A19.73,19.73,0,0,0,274.69,461.41Z"/>
    <path class="cls-1" d="M480.34,262.28l.18-.93a.26.26,0,0,1-.22-.14Z"/>
    <path class="cls-1" d="M480.3,261.21l-.08-1.06A1.81,1.81,0,0,0,480.3,261.21Z"/>
    <path class="cls-1" d="M480,257.92l.19,2.23A3.88,3.88,0,0,0,480,257.92Z"/>
    <path class="cls-1" d="M475.45,287.75l.43.4A.64.64,0,0,0,475.45,287.75Z"/>
    <path class="cls-1" d="M473.78,295.44c.62-1.77,2.14-4.33,2.44-7l-.34-.33C476.32,289.53,473.43,293.53,473.78,295.44Z"/>
    <path class="cls-1" d="M457.35,324.06c1-1.91,1.84-3.87,2.76-5.81-.91.85-2.13,1.94-1.19-.81C454.46,324.32,460.69,316.35,457.35,324.06Z"/>
    <path class="cls-1" d="M448,341.6c1.34-3.18-.72-.34-.9-.65a6.72,6.72,0,0,0-.4,1.88C446.81,343,447.24,342.63,448,341.6Z"/>
    <path class="cls-1" d="M344.93,437.32l-.21-1.31C342.39,437.26,344.89,436.47,344.93,437.32Z"/>
    <path class="cls-1" d="M321.23,453.24c.92,0,1.86,0,2.77,0l.85-1.52C323.65,452.25,322.45,452.79,321.23,453.24Z"/>
    <polygon class="cls-1" points="303.12 448.55 304.19 448.12 300.04 449.55 303.12 448.55"/>
    <path class="cls-1" d="M89.15,375.33,88.44,377C89.83,378.12,91.41,377.27,89.15,375.33Z"/>
    <path class="cls-1" d="M43.3,283.9a7.88,7.88,0,0,0-.6-5.82C43,280.38,42.8,282.79,43.3,283.9Z"/>
    <path class="cls-1" d="M181.6,36.52l-1.73,1.25c1.16-.6,2.29-1.25,3.48-1.77C182.77,36.17,182.17,36.31,181.6,36.52Z"/>
  </g>
  <polygon class="cls-2" points="222.14 115.17 201.61 137.21 310.33 238.24 201.61 339.3 222.14 361.35 354.52 238.24 222.14 115.17"/>
</svg>
